<?xml version="1.0" encoding="UTF-8"?>
<svg version="1.1" xmlns="http://www.w3.org/2000/svg" width="200" height="267">
<path d="M0 0 C1.8125 0.9375 1.8125 0.9375 4.8125 2.9375 C4.8125 4.2575 4.8125 5.5775 4.8125 6.9375 C5.4725 6.9375 6.1325 6.9375 6.8125 6.9375 C6.8125 7.5975 6.8125 8.2575 6.8125 8.9375 C8.1325 9.2675 9.4525 9.5975 10.8125 9.9375 C10.8125 10.5975 10.8125 11.2575 10.8125 11.9375 C11.4725 11.9375 12.1325 11.9375 12.8125 11.9375 C12.8125 12.5975 12.8125 13.2575 12.8125 13.9375 C13.4725 13.9375 14.1325 13.9375 14.8125 13.9375 C15.225 14.88625 15.6375 15.835 16.0625 16.8125 C17.8165131 19.94466624 18.52101757 20.80250606 21.8125 21.9375 C21.8125 22.9275 21.8125 23.9175 21.8125 24.9375 C22.4725 24.9375 23.1325 24.9375 23.8125 24.9375 C23.85375 25.55625 23.895 26.175 23.9375 26.8125 C24.22625 27.51375 24.515 28.215 24.8125 28.9375 C25.76125 29.246875 26.71 29.55625 27.6875 29.875 C31.60658584 31.20748919 31.80055691 32.43541452 33.8125 35.9375 C35.86847145 38.33940928 38.01162653 40.63746448 40.16796875 42.94921875 C41.8125 44.9375 41.8125 44.9375 41.8125 46.9375 C42.8025 47.2675 43.7925 47.5975 44.8125 47.9375 C44.8125 48.9275 44.8125 49.9175 44.8125 50.9375 C45.4725 50.9375 46.1325 50.9375 46.8125 50.9375 C47.8025 53.4125 47.8025 53.4125 48.8125 55.9375 C49.4725 55.9375 50.1325 55.9375 50.8125 55.9375 C50.8125 56.5975 50.8125 57.2575 50.8125 57.9375 C51.4725 57.9375 52.1325 57.9375 52.8125 57.9375 C53.8025 60.4125 53.8025 60.4125 54.8125 62.9375 C55.4725 62.9375 56.1325 62.9375 56.8125 62.9375 C56.8125 63.5975 56.8125 64.2575 56.8125 64.9375 C57.8025 64.9375 58.7925 64.9375 59.8125 64.9375 C62.375 67.3125 62.375 67.3125 64.8125 69.9375 C65.4725 70.5975 66.1325 71.2575 66.8125 71.9375 C67.14598267 76.84568082 66.75083243 80.81671404 63.5625 84.625 C60.8125 85.9375 60.8125 85.9375 58.2734375 85.8515625 C55.8125 84.9375 55.8125 84.9375 54.5546875 82.57421875 C54.26851562 81.60097656 53.98234375 80.62773437 53.6875 79.625 C52.5194292 75.75382729 51.30662572 73.10702988 48.8125 69.9375 C48.32783481 73.35340931 47.85083368 76.7703502 47.375 80.1875 C47.17293945 81.610625 47.17293945 81.610625 46.96679688 83.0625 C45.30370559 95.06920785 44.64794849 106.8781779 44.68212891 118.98461914 C44.68753296 121.26390098 44.68212681 123.54298939 44.67578125 125.82226562 C44.67644145 127.29427126 44.67772142 128.76627678 44.6796875 130.23828125 C44.68137939 132.20535034 44.68137939 132.20535034 44.68310547 134.2121582 C44.80973684 137.857947 45.2505133 141.33635569 45.8125 144.9375 C45.85136822 146.49951649 45.8573648 148.06314424 45.8125 149.625 C45.72780403 152.60523946 45.98333033 155.0677956 46.8125 157.9375 C45.73179311 158.92221287 44.62078002 159.8736502 43.5 160.8125 C42.57767578 161.61300781 42.57767578 161.61300781 41.63671875 162.4296875 C33.04810608 167.01503257 22.45731461 166.24484602 13 166.1875 C11.73607422 166.19523438 10.47214844 166.20296875 9.16992188 166.2109375 C3.00796341 166.198317 -2.88503308 165.91877434 -8.96875 164.91796875 C-18.40295954 163.42376985 -27.83122279 163.84640604 -37.34936523 164.05395508 C-39.73680843 164.10203076 -42.12397065 164.13197706 -44.51171875 164.16015625 C-45.6037989 164.1927932 -45.6037989 164.1927932 -46.71794128 164.22608948 C-51.76942651 164.27607062 -51.76942651 164.27607062 -53.97973633 162.48608398 C-54.37829834 161.97505127 -54.77686035 161.46401855 -55.1875 160.9375 C-56.1775 160.6075 -57.1675 160.2775 -58.1875 159.9375 C-59.81073754 156.17842359 -60.42744929 153.01663787 -60.1875 148.9375 C-59.1975 148.9375 -58.2075 148.9375 -57.1875 148.9375 C-57.19910156 148.17824219 -57.21070313 147.41898438 -57.22265625 146.63671875 C-57.23167969 145.64285156 -57.24070313 144.64898437 -57.25 143.625 C-57.26160156 142.63886719 -57.27320313 141.65273437 -57.28515625 140.63671875 C-57.1875 137.9375 -57.1875 137.9375 -56.1875 134.9375 C-54.91818672 124.77017238 -55.21409346 114.81843405 -56 104.625 C-56.0822583 103.55306396 -56.1645166 102.48112793 -56.24926758 101.37670898 C-56.78829656 95.03934476 -57.64655109 88.82367783 -58.74389648 82.55981445 C-59.24313368 79.6086275 -59.5769628 76.67097116 -59.8125 73.6875 C-59.88726562 72.77484375 -59.96203125 71.8621875 -60.0390625 70.921875 C-60.08804688 70.26703125 -60.13703125 69.6121875 -60.1875 68.9375 C-62.1616626 69.29549797 -62.1616626 69.29549797 -64.1875 69.9375 C-64.88901152 71.2528341 -65.55275925 72.58867592 -66.1875 73.9375 C-69.61607143 76.9375 -69.61607143 76.9375 -72.1875 76.9375 C-72.1875 77.5975 -72.1875 78.2575 -72.1875 78.9375 C-76.90306657 83.17743305 -81.78608356 85.9375 -88.1875 85.9375 C-88.1875 84.9475 -88.1875 83.9575 -88.1875 82.9375 C-88.8475 82.9375 -89.5075 82.9375 -90.1875 82.9375 C-89.82579787 75.70345745 -89.82579787 75.70345745 -87.3125 72.6875 C-83.60633809 70.61204933 -79.85835749 69.32067903 -75.80859375 68.0625 C-72.88185694 66.8063149 -71.39897813 65.18170613 -69.1875 62.9375 C-68.1975 62.9375 -67.2075 62.9375 -66.1875 62.9375 C-66.1875 62.2775 -66.1875 61.6175 -66.1875 60.9375 C-65.589375 60.504375 -64.99125 60.07125 -64.375 59.625 C-62.07145631 58.07798839 -62.07145631 58.07798839 -60.9375 55.6875 C-58.80209109 52.33185742 -56.21531577 50.19593163 -53.1875 47.65234375 C-51.45851871 46.16987737 -49.88078612 44.64763393 -48.3125 43 C-46.1875 40.9375 -46.1875 40.9375 -44.1875 40.9375 C-43.15839132 35.47530777 -43.34052229 30.85659887 -44.125 25.375 C-44.79048413 20.51911255 -45.31958532 15.85573566 -45.1875 10.9375 C-40.86015609 8.70826223 -37.90349818 9.01279447 -33.1875 9.9375 C-32.5275 8.6175 -31.8675 7.2975 -31.1875 5.9375 C-25.7425 6.4325 -25.7425 6.4325 -20.1875 6.9375 C-19.09557624 12.3971188 -19.53069956 13.36780325 -22.1875 17.9375 C-20.18766466 17.14632096 -20.18766466 17.14632096 -18.1875 15.9375 C-17.8575 14.9475 -17.5275 13.9575 -17.1875 12.9375 C-12.73035714 8.9375 -12.73035714 8.9375 -10.1875 8.9375 C-10.1875 8.2775 -10.1875 7.6175 -10.1875 6.9375 C-9.5275 6.9375 -8.8675 6.9375 -8.1875 6.9375 C-8.1875 6.2775 -8.1875 5.6175 -8.1875 4.9375 C-3.04611846 -0.08703196 -3.04611846 -0.08703196 0 0 Z M-2.1875 9.9375 C-3.5315093 11.93034138 -4.86291292 13.93169671 -6.1875 15.9375 C-7.85416667 17.60416667 -9.52083333 19.27083333 -11.1875 20.9375 C-11.1875 21.5975 -11.1875 22.2575 -11.1875 22.9375 C-11.744375 23.164375 -12.30125 23.39125 -12.875 23.625 C-15.91412564 25.34990914 -17.94503345 27.25899829 -20.1875 29.9375 C-20.1875 30.80375 -20.1875 31.67 -20.1875 32.5625 C-20.1875 33.34625 -20.1875 34.13 -20.1875 34.9375 C-20.98414062 35.32421875 -21.78078125 35.7109375 -22.6015625 36.109375 C-25.54827425 37.78095378 -25.54827425 37.78095378 -26.1484375 41.4765625 C-26.30976885 42.83597752 -26.447117 44.19841651 -26.5625 45.5625 C-26.64371094 46.25601563 -26.72492188 46.94953125 -26.80859375 47.6640625 C-26.99682514 49.41632559 -27.09928322 51.17736512 -27.1875 52.9375 C-23.65103694 56.47396306 -12.02356128 55.0342859 -7.125 55.125 C-1.99095425 55.09122338 2.81794471 54.31763735 7.85546875 53.38671875 C13.65361641 52.50589051 19.42214965 52.49484253 25.1875 53.5625 C28.32648174 54.01092596 30.01198299 53.33775851 32.8125 51.9375 C32.23926569 48.06816838 30.42296448 45.78527943 27.8125 42.9375 C27.1525 42.9375 26.4925 42.9375 25.8125 42.9375 C25.54308594 42.35097656 25.27367187 41.76445313 24.99609375 41.16015625 C23.81404813 38.94040721 22.53149616 37.25910632 20.875 35.375 C20.37097656 34.79621094 19.86695313 34.21742187 19.34765625 33.62109375 C17.8696393 31.95367331 17.8696393 31.95367331 16.37109375 30.59765625 C14.8125 28.9375 14.8125 28.9375 12.9765625 26.1796875 C10.58582701 22.59789967 7.96550505 19.34559688 5.1875 16.0625 C4.69765625 15.46953125 4.2078125 14.8765625 3.703125 14.265625 C2.45250085 12.78264445 1.13719174 11.3547099 -0.1875 9.9375 C-0.8475 9.9375 -1.5075 9.9375 -2.1875 9.9375 Z M-40.1875 48.9375 C-41.82426257 50.8975281 -41.82426257 50.8975281 -43.1875 52.9375 C-41.5375 52.9375 -39.8875 52.9375 -38.1875 52.9375 C-38.1875 51.6175 -38.1875 50.2975 -38.1875 48.9375 C-38.8475 48.9375 -39.5075 48.9375 -40.1875 48.9375 Z M-44.1875 60.9375 C-47.57603528 71.56028916 -46.33208447 82.26037334 -45.1875 93.1875 C-43.61610245 108.51658691 -43.75766729 122.78112756 -46.53125 137.9609375 C-47.07571602 140.99378337 -47.33532818 143.84542726 -47.1875 146.9375 C-45.25050627 147.10995095 -43.31285992 147.27507169 -41.375 147.4375 C-40.29605469 147.5303125 -39.21710938 147.623125 -38.10546875 147.71875 C-35.06729983 147.88837857 -32.11556512 147.93726407 -29.078125 147.90625 C-21.45283525 147.86973104 -13.89559985 148.5898803 -6.30273438 149.2265625 C3.3077092 149.99408224 12.97709037 150.60338038 22.5625 149.25 C23.56796875 149.12238281 24.5734375 148.99476563 25.609375 148.86328125 C29.92418258 147.61619662 33.54391961 146.08900099 36.8125 142.9375 C37.89120827 139.80515043 37.70369643 136.87717637 37.5234375 133.59765625 C37.50660416 132.68667175 37.48977081 131.77568726 37.47242737 130.83709717 C37.43275843 128.8938667 37.37525869 126.95093216 37.30148315 125.00869751 C37.11181317 120.00217152 37.04804312 114.99359416 36.96484375 109.984375 C36.94480789 109.01115799 36.92477203 108.03794098 36.90412903 107.03523254 C36.72910502 97.60855135 37.33189039 88.38622436 38.54248047 79.03369141 C39.01815466 75.34098022 39.40617135 71.63838525 39.8125 67.9375 C33.88677759 64.69246154 28.42853235 64.47889902 21.7265625 64.24609375 C20.76492187 64.14425781 19.80328125 64.04242188 18.8125 63.9375 C18.3175 62.9475 18.3175 62.9475 17.8125 61.9375 C16.59175781 62.081875 15.37101562 62.22625 14.11328125 62.375 C4.64135151 63.4592994 -4.64075798 64.30640221 -14.1875 63.9375 C-14.88713867 63.91284668 -15.58677734 63.88819336 -16.30761719 63.86279297 C-18.60176801 63.77675002 -20.89441228 63.67317214 -23.1875 63.5625 C-24.26572021 63.5164563 -24.26572021 63.5164563 -25.36572266 63.46948242 C-29.39358457 63.2402275 -32.49999746 62.51151141 -36.1875 60.9375 C-38.39612404 60.69943194 -38.39612404 60.69943194 -40.5 60.8125 C-41.716875 60.85375 -42.93375 60.895 -44.1875 60.9375 Z " fill="#344154" transform="translate(106.1875,50.0625)"/>
<path d="M0 0 C1.8125 0.9375 1.8125 0.9375 4.8125 2.9375 C4.8125 4.2575 4.8125 5.5775 4.8125 6.9375 C5.4725 6.9375 6.1325 6.9375 6.8125 6.9375 C6.8125 7.5975 6.8125 8.2575 6.8125 8.9375 C8.1325 9.2675 9.4525 9.5975 10.8125 9.9375 C10.8125 10.5975 10.8125 11.2575 10.8125 11.9375 C11.4725 11.9375 12.1325 11.9375 12.8125 11.9375 C12.8125 12.5975 12.8125 13.2575 12.8125 13.9375 C13.4725 13.9375 14.1325 13.9375 14.8125 13.9375 C15.225 14.88625 15.6375 15.835 16.0625 16.8125 C17.8165131 19.94466624 18.52101757 20.80250606 21.8125 21.9375 C21.8125 22.9275 21.8125 23.9175 21.8125 24.9375 C22.4725 24.9375 23.1325 24.9375 23.8125 24.9375 C23.85375 25.55625 23.895 26.175 23.9375 26.8125 C24.22625 27.51375 24.515 28.215 24.8125 28.9375 C25.76125 29.246875 26.71 29.55625 27.6875 29.875 C31.60658584 31.20748919 31.80055691 32.43541452 33.8125 35.9375 C35.86847145 38.33940928 38.01162653 40.63746448 40.16796875 42.94921875 C41.8125 44.9375 41.8125 44.9375 41.8125 46.9375 C43.2975 47.4325 43.2975 47.4325 44.8125 47.9375 C44.8125 48.9275 44.8125 49.9175 44.8125 50.9375 C45.4725 50.9375 46.1325 50.9375 46.8125 50.9375 C47.8025 53.4125 47.8025 53.4125 48.8125 55.9375 C49.4725 55.9375 50.1325 55.9375 50.8125 55.9375 C50.8125 56.5975 50.8125 57.2575 50.8125 57.9375 C51.4725 57.9375 52.1325 57.9375 52.8125 57.9375 C53.8025 60.4125 53.8025 60.4125 54.8125 62.9375 C55.4725 62.9375 56.1325 62.9375 56.8125 62.9375 C56.8125 63.5975 56.8125 64.2575 56.8125 64.9375 C57.8025 64.9375 58.7925 64.9375 59.8125 64.9375 C62.375 67.3125 62.375 67.3125 64.8125 69.9375 C65.4725 70.5975 66.1325 71.2575 66.8125 71.9375 C67.14598267 76.84568082 66.75083243 80.81671404 63.5625 84.625 C60.8125 85.9375 60.8125 85.9375 58.2734375 85.8515625 C55.8125 84.9375 55.8125 84.9375 54.5546875 82.57421875 C54.26851563 81.60097656 53.98234375 80.62773437 53.6875 79.625 C52.5194292 75.75382729 51.30662572 73.10702988 48.8125 69.9375 C48.32783481 73.35340931 47.85083368 76.7703502 47.375 80.1875 C47.17293945 81.610625 47.17293945 81.610625 46.96679688 83.0625 C45.30370559 95.06920785 44.64794849 106.8781779 44.68212891 118.98461914 C44.68753296 121.26390098 44.68212681 123.54298939 44.67578125 125.82226562 C44.67644145 127.29427126 44.67772142 128.76627678 44.6796875 130.23828125 C44.68137939 132.20535034 44.68137939 132.20535034 44.68310547 134.2121582 C44.80974314 137.85812849 45.24719251 141.33661049 45.8125 144.9375 C45.92001986 147.6168948 45.8595821 150.25382049 45.8125 152.9375 C43.70766163 149.78024244 43.50361983 148.53899717 43.25 144.875 C43.03616554 141.26989957 43.03616554 141.26989957 41.8125 137.9375 C41.68876487 135.42305225 41.62445231 132.93750964 41.609375 130.421875 C41.59919342 129.28249733 41.59919342 129.28249733 41.58880615 128.12010193 C41.57173539 125.6425269 41.56559603 123.16513017 41.5625 120.6875 C41.56016357 119.8492569 41.55782715 119.01101379 41.55541992 118.14736938 C41.54294496 106.32720011 42.12037598 94.89926686 44.15625 83.23046875 C44.87442348 79.08133369 44.92760312 75.14355993 44.8125 70.9375 C43.3275 70.4425 43.3275 70.4425 41.8125 69.9375 C38.18086609 80.83240173 38.66634497 93.60900304 38.6796875 104.95703125 C38.67793518 106.08043915 38.67618286 107.20384705 38.67437744 108.36129761 C38.67099186 113.01197219 38.67347213 117.66142222 38.73339844 122.31176758 C38.77234659 125.75701696 38.76138604 129.19918088 38.7421875 132.64453125 C38.76787811 133.69139603 38.79356873 134.7382608 38.82003784 135.81684875 C38.72681177 142.86070504 38.72681177 142.86070504 36.11335754 145.93859863 C31.15143557 149.83315993 27.03635813 150.88886706 20.8125 150.9375 C19.73371582 150.96231445 18.65493164 150.98712891 17.54345703 151.01269531 C13.81961687 151.0722606 10.0992657 151.07390663 6.375 151.0625 C5.11623047 151.06636719 3.85746094 151.07023438 2.56054688 151.07421875 C-3.56448462 151.06782852 -9.55499093 150.88930785 -15.63842773 150.18701172 C-22.06246599 149.55820537 -28.54515223 149.52669049 -34.99414062 149.33203125 C-36.66186523 149.27595703 -36.66186523 149.27595703 -38.36328125 149.21875 C-39.36270752 149.18845703 -40.36213379 149.15816406 -41.3918457 149.12695312 C-44.0717763 148.94534225 -46.57037272 148.52858967 -49.1875 147.9375 C-49.33035714 140.50892857 -49.33035714 140.50892857 -48.1875 136.9375 C-47.5275 136.9375 -46.8675 136.9375 -46.1875 136.9375 C-46.1875 135.2875 -46.1875 133.6375 -46.1875 131.9375 C-45.8575 131.9375 -45.5275 131.9375 -45.1875 131.9375 C-45.33012412 133.5002962 -45.47675511 135.06272696 -45.625 136.625 C-45.70621094 137.49511719 -45.78742187 138.36523438 -45.87109375 139.26171875 C-46.17847674 141.8611922 -46.66000309 144.37510396 -47.1875 146.9375 C-46.60186279 146.92702637 -46.01622559 146.91655273 -45.4128418 146.90576172 C-32.07817039 146.7021396 -18.91712226 147.06740237 -5.62768555 148.22607422 C3.79111471 149.03087918 13.23547979 149.58568273 22.625 148.1875 C24.15060547 147.97867188 24.15060547 147.97867188 25.70703125 147.765625 C28.41763623 147.042797 30.13493196 146.28341189 32.5065918 144.88574219 C34.14301636 143.9213623 34.14301636 143.9213623 35.8125 142.9375 C35.80202637 141.71981934 35.79155273 140.50213867 35.78076172 139.24755859 C35.36638134 86.47208668 35.36638134 86.47208668 39.8125 67.9375 C39.02875 67.793125 38.245 67.64875 37.4375 67.5 C34.8125 66.9375 34.8125 66.9375 32.8125 65.9375 C29.18293213 65.37436705 25.54463494 64.91081297 21.90234375 64.4375 C18.8125 63.9375 18.8125 63.9375 17.8125 62.9375 C14.88306211 63.19970277 11.98069238 63.51848001 9.0625 63.875 C1.26440818 64.75426059 -6.33332485 65.24099857 -14.1875 64.9375 C-14.88713867 64.91284668 -15.58677734 64.88819336 -16.30761719 64.86279297 C-18.60176801 64.77675002 -20.89441228 64.67317214 -23.1875 64.5625 C-23.90631348 64.5318042 -24.62512695 64.5011084 -25.36572266 64.46948242 C-29.3485908 64.24278842 -32.58326576 63.66922192 -36.1875 61.9375 C-36.1875 61.6075 -36.1875 61.2775 -36.1875 60.9375 C-33.5475 60.9375 -30.9075 60.9375 -28.1875 60.9375 C-28.1875 59.9475 -28.1875 58.9575 -28.1875 57.9375 C-25.2175 57.4425 -25.2175 57.4425 -22.1875 56.9375 C-22.1875 55.9475 -22.1875 54.9575 -22.1875 53.9375 C-21.61418945 53.94797363 -21.04087891 53.95844727 -20.45019531 53.96923828 C-6.06422416 54.21611441 -6.06422416 54.21611441 8.171875 52.38671875 C14.8085862 51.25769244 21.22543843 51.81287973 27.8125 52.9375 C30.08900745 52.5797386 30.08900745 52.5797386 31.8125 51.9375 C31.3467674 47.60101202 28.50865239 45.11856421 25.625 42.125 C24.6190916 41.05404253 23.61387813 39.9824319 22.609375 38.91015625 C22.12533203 38.39727051 21.64128906 37.88438477 21.14257812 37.35595703 C19.51682024 35.62217338 17.93298052 33.85738993 16.375 32.0625 C15.96378906 31.59070313 15.55257812 31.11890625 15.12890625 30.6328125 C14.00586552 29.18652266 12.97800744 27.66715783 11.97265625 26.13671875 C9.7130165 22.79016367 7.28005365 19.71375457 4.6875 16.625 C4.24535156 16.08810547 3.80320313 15.55121094 3.34765625 14.99804688 C0.9383723 12.04068781 0.9383723 12.04068781 -2.1875 9.9375 C-2.4659375 10.9275 -2.4659375 10.9275 -2.75 11.9375 C-5.87898986 18.4675658 -11.43069291 23.65336449 -17.1875 27.9375 C-17.8475 27.9375 -18.5075 27.9375 -19.1875 27.9375 C-19.06375 29.5771875 -19.06375 29.5771875 -18.9375 31.25 C-19.1875 34.9375 -19.1875 34.9375 -21.0625 36.875 C-23.1875 37.9375 -23.1875 37.9375 -25.1875 37.9375 C-25.5175 38.5975 -25.8475 39.2575 -26.1875 39.9375 C-26.5175 38.6175 -26.8475 37.2975 -27.1875 35.9375 C-25.5375 35.2775 -23.8875 34.6175 -22.1875 33.9375 C-21.89081052 28.54130381 -21.89081052 28.54130381 -23.25 23.4375 C-24.60160945 19.83320814 -24.09879008 16.63410413 -23.1875 12.9375 C-22.5275 11.6175 -21.8675 10.2975 -21.1875 8.9375 C-24.4875 8.9375 -27.7875 8.9375 -31.1875 8.9375 C-31.5175 9.5975 -31.8475 10.2575 -32.1875 10.9375 C-34.21875 11.31640625 -34.21875 11.31640625 -36.6875 11.5 C-39.73731525 11.5167263 -39.73731525 11.5167263 -42.1875 12.9375 C-42.42113881 14.78641946 -42.60053635 16.64238031 -42.75 18.5 C-42.83378906 19.51191406 -42.91757812 20.52382812 -43.00390625 21.56640625 C-43.06449219 22.34886719 -43.12507813 23.13132812 -43.1875 23.9375 C-43.5175 23.9375 -43.8475 23.9375 -44.1875 23.9375 C-44.5175 19.6475 -44.8475 15.3575 -45.1875 10.9375 C-40.06940297 8.89026119 -38.37023772 8.92127692 -33.1875 9.9375 C-32.5275 8.6175 -31.8675 7.2975 -31.1875 5.9375 C-25.7425 6.4325 -25.7425 6.4325 -20.1875 6.9375 C-19.09557624 12.3971188 -19.53069956 13.36780325 -22.1875 17.9375 C-20.18766466 17.14632096 -20.18766466 17.14632096 -18.1875 15.9375 C-17.8575 14.9475 -17.5275 13.9575 -17.1875 12.9375 C-12.73035714 8.9375 -12.73035714 8.9375 -10.1875 8.9375 C-10.1875 8.2775 -10.1875 7.6175 -10.1875 6.9375 C-9.5275 6.9375 -8.8675 6.9375 -8.1875 6.9375 C-8.1875 6.2775 -8.1875 5.6175 -8.1875 4.9375 C-3.04611846 -0.08703196 -3.04611846 -0.08703196 0 0 Z " fill="#38465A" transform="translate(106.1875,50.0625)"/>
<path d="M0 0 C0.66 0 1.32 0 2 0 C3.8557061 15.34905842 5.30450807 30.59147973 5.375 46.0625 C5.38853516 47.26600098 5.40207031 48.46950195 5.41601562 49.70947266 C5.37999569 56.90845629 4.47467327 63.38790772 2.64306641 70.35327148 C1.88195116 73.03190963 1.88195116 73.03190963 2 76 C9.33741969 78.3479743 16.34393782 78.19355213 24 78 C24 78.33 24 78.66 24 79 C18.94997778 80.03590199 14.12583611 80.10251672 9 80 C9 80.66 9 81.32 9 82 C9.50668213 81.83773926 10.01336426 81.67547852 10.53540039 81.50830078 C13.83628279 80.82752444 17.07913629 80.8572821 20.43359375 80.8671875 C21.50602074 80.86575241 21.50602074 80.86575241 22.60011292 80.86428833 C24.10881641 80.86360936 25.61752286 80.86544389 27.1262207 80.86962891 C29.42601138 80.8749733 31.72560606 80.86967843 34.02539062 80.86328125 C35.49479209 80.86394224 36.96419344 80.86522382 38.43359375 80.8671875 C39.45881386 80.86415115 39.45881386 80.86415115 40.50474548 80.86105347 C43.23421605 80.87434321 45.80753389 80.9613217 48.48803711 81.5 C51.90918105 82.18097024 55.28485663 82.14278043 58.7578125 82.1328125 C59.50151093 82.13376923 60.24520935 82.13472595 61.01144409 82.13571167 C62.58315109 82.13639033 64.15486093 82.134558 65.7265625 82.13037109 C68.09642073 82.125064 70.46608548 82.13030307 72.8359375 82.13671875 C80.94337254 82.13991644 88.9376796 81.97208422 97 81 C97 80.34 97 79.68 97 79 C97.969375 78.7525 98.93875 78.505 99.9375 78.25 C100.948125 77.8375 101.95875 77.425 103 77 C103.96877057 74.96756452 103.96877057 74.96756452 104 73 C104.33 74.32 104.66 75.64 105 77 C103.91929311 77.98471287 102.80828002 78.9361502 101.6875 79.875 C101.07261719 80.40867187 100.45773438 80.94234375 99.82421875 81.4921875 C91.23560608 86.07753257 80.64481461 85.30734602 71.1875 85.25 C69.92357422 85.25773437 68.65964844 85.26546875 67.35742188 85.2734375 C61.19546341 85.260817 55.30246692 84.98127434 49.21875 83.98046875 C39.78454046 82.48626985 30.35627721 82.90890604 20.83813477 83.11645508 C18.45069157 83.16453076 16.06352935 83.19447706 13.67578125 83.22265625 C12.94772781 83.24441422 12.21967438 83.26617218 11.46955872 83.28858948 C6.41807349 83.33857062 6.41807349 83.33857062 4.20776367 81.54858398 C3.60992065 80.78203491 3.60992065 80.78203491 3 80 C2.01 79.67 1.02 79.34 0 79 C-1.62323754 75.24092359 -2.23994929 72.07913787 -2 68 C-1.01 68 -0.02 68 1 68 C0.98839844 67.24074219 0.97679687 66.48148437 0.96484375 65.69921875 C0.95582031 64.70535156 0.94679687 63.71148437 0.9375 62.6875 C0.92589844 61.70136719 0.91429687 60.71523437 0.90234375 59.69921875 C1 57 1 57 2 54 C3.79802246 39.59765846 2.33972539 25.38032887 1 11 C0.80954033 8.9036781 0.619415 6.80732579 0.4296875 4.7109375 C0.28657579 3.14061429 0.14339367 1.57029749 0 0 Z " fill="#3E4E65" transform="translate(48,131)"/>
<path d="M0 0 C0.98484375 0.00902344 1.9696875 0.01804687 2.984375 0.02734375 C4.10585937 0.04474609 4.10585937 0.04474609 5.25 0.0625 C5.25 0.7225 5.25 1.3825 5.25 2.0625 C5.97445312 2.03929688 6.69890625 2.01609375 7.4453125 1.9921875 C14.67905751 1.85715759 19.78615539 2.79626854 26.25 6.0625 C26.10756403 8.72938629 25.96113422 11.39595767 25.8125 14.0625 C25.77318359 14.80628906 25.73386719 15.55007812 25.69335938 16.31640625 C25.65146484 17.05761719 25.60957031 17.79882812 25.56640625 18.5625 C25.52974854 19.2328125 25.49309082 19.903125 25.45532227 20.59375 C25.28826499 22.60241011 25.02444943 24.60284014 24.73242188 26.59716797 C24.03493851 32.06056981 24.172056 37.50965094 24.21484375 43.0078125 C24.21113364 45.32422319 24.2052079 47.64063121 24.19726562 49.95703125 C24.18668093 53.58290617 24.18770301 57.20680492 24.22583008 60.83251953 C24.25890957 64.35036854 24.2413971 67.86497257 24.21484375 71.3828125 C24.23739731 72.46418488 24.25995087 73.54555725 24.28318787 74.65969849 C24.16654878 81.97128243 24.16654878 81.97128243 21.54862976 85.08810425 C16.59923426 88.97209991 12.45503457 90.01401415 6.25 90.0625 C5.17121582 90.08731445 4.09243164 90.11212891 2.98095703 90.13769531 C-0.74288313 90.1972606 -4.4632343 90.19890663 -8.1875 90.1875 C-9.44626953 90.19136719 -10.70503906 90.19523437 -12.00195312 90.19921875 C-18.12698462 90.19282852 -24.11749093 90.01430785 -30.20092773 89.31201172 C-36.62496599 88.68320537 -43.10765223 88.65169049 -49.55664062 88.45703125 C-51.22436523 88.40095703 -51.22436523 88.40095703 -52.92578125 88.34375 C-53.92520752 88.31345703 -54.92463379 88.28316406 -55.9543457 88.25195312 C-58.6342763 88.07034225 -61.13287272 87.65358967 -63.75 87.0625 C-63.89285714 79.63392857 -63.89285714 79.63392857 -62.75 76.0625 C-62.09 76.0625 -61.43 76.0625 -60.75 76.0625 C-60.75 74.4125 -60.75 72.7625 -60.75 71.0625 C-60.42 71.0625 -60.09 71.0625 -59.75 71.0625 C-59.89262412 72.6252962 -60.03925511 74.18772696 -60.1875 75.75 C-60.26871094 76.62011719 -60.34992187 77.49023438 -60.43359375 78.38671875 C-60.74097674 80.9861922 -61.22250309 83.50010396 -61.75 86.0625 C-61.16436279 86.05202637 -60.57872559 86.04155273 -59.9753418 86.03076172 C-46.64067039 85.8271396 -33.47962226 86.19240237 -20.19018555 87.35107422 C-10.77138529 88.15587918 -1.32702021 88.71068273 8.0625 87.3125 C9.58810547 87.10367188 9.58810547 87.10367188 11.14453125 86.890625 C13.85513623 86.167797 15.57243196 85.40841189 17.9440918 84.01074219 C19.0350415 83.36782227 20.12599121 82.72490234 21.25 82.0625 C21.23952637 80.84481934 21.22905273 79.62713867 21.21826172 78.37255859 C20.80388134 25.59708668 20.80388134 25.59708668 25.25 7.0625 C24.074375 6.8459375 24.074375 6.8459375 22.875 6.625 C20.25 6.0625 20.25 6.0625 18.25 5.0625 C14.62043213 4.49936705 10.98213494 4.03581297 7.33984375 3.5625 C4.25 3.0625 4.25 3.0625 3.25 2.0625 C0.32055072 2.32470379 -2.58189281 2.64263538 -5.5 3 C-13.30836453 3.89974743 -20.88416446 4.31669217 -28.75 4.0625 C-25.77019702 1.08269702 -22.37946036 1.63636451 -18.375 1.5 C-16.8462112 1.43972058 -15.31755245 1.37602713 -13.7890625 1.30859375 C-13.11053223 1.28466553 -12.43200195 1.2607373 -11.73291016 1.23608398 C-7.68984813 0.88215427 -4.13980943 -0.04928345 0 0 Z " fill="#42526B" transform="translate(120.75,110.9375)"/>
<path d="M0 0 C1.32 0 2.64 0 4 0 C4.12976381 5.42845272 3.86805352 10.3979852 2.93261719 15.73730469 C0.92345014 27.40680088 0.71711062 38.94554863 0.75 50.75 C0.75104736 51.58825317 0.75209473 52.42650635 0.75317383 53.29016113 C0.75951738 55.68837535 0.77544388 58.08625181 0.796875 60.484375 C0.80124573 61.21362183 0.80561646 61.94286865 0.81011963 62.69421387 C0.80759749 66.47317816 0.80759749 66.47317816 2 70 C2.23172827 72.54615009 2.41894529 75.07396225 2.5625 77.625 C2.60568359 78.33140625 2.64886719 79.0378125 2.69335938 79.765625 C2.79944751 81.51018537 2.90022889 83.25506697 3 85 C2.34 84.67 1.68 84.34 1 84 C1 83.01 1 82.02 1 81 C-0.98 81.495 -0.98 81.495 -3 82 C-3 80.35 -3 78.7 -3 77 C-3.66 76.67 -4.32 76.34 -5 76 C-4.505 75.505 -4.505 75.505 -4 75 C-3.91703922 73.44288808 -3.90362289 71.88200602 -3.91821289 70.32275391 C-3.9247438 69.32305573 -3.93127472 68.32335754 -3.93800354 67.29336548 C-3.94943893 66.1988205 -3.96087433 65.10427551 -3.97265625 63.9765625 C-3.98533088 61.65104331 -3.99768963 59.32552238 -4.00976562 57 C-4.03431283 53.34076483 -4.06197431 49.68162116 -4.09594727 46.02246094 C-4.30101392 22.46724573 -4.30101392 22.46724573 -3.12109375 10.9609375 C-3.00375633 9.79880234 -3.00375633 9.79880234 -2.88404846 8.6131897 C-2.46065671 5.04613524 -2.02757317 3.04135976 0 0 Z " fill="#313D4F" transform="translate(148,120)"/>
<path d="M0 0 C0.33 0 0.66 0 1 0 C0.93941406 0.65484375 0.87882813 1.3096875 0.81640625 1.984375 C0.69072266 3.35335937 0.69072266 3.35335937 0.5625 4.75 C0.48128906 5.63171875 0.40007812 6.5134375 0.31640625 7.421875 C0.21199219 8.60265625 0.10757813 9.7834375 0 11 C-0.08378906 11.81170654 -0.16757813 12.62341309 -0.25390625 13.4597168 C-1.04157418 21.666232 -1.15362289 29.81151027 -1.13037109 38.04711914 C-1.12496704 40.32640098 -1.13037319 42.60548939 -1.13671875 44.88476562 C-1.13605855 46.35677126 -1.13477858 47.82877678 -1.1328125 49.30078125 C-1.13168457 50.61216064 -1.13055664 51.92354004 -1.12939453 53.2746582 C-1.00275686 56.92062849 -0.56530749 60.39911049 0 64 C0.10751986 66.6793948 0.0470821 69.31632049 0 72 C-2.10483837 68.84274244 -2.30888017 67.60149717 -2.5625 63.9375 C-2.77633446 60.33239957 -2.77633446 60.33239957 -4 57 C-4.11144331 54.42706427 -4.164128 51.88218979 -4.16796875 49.30859375 C-4.17129715 48.53048843 -4.17462555 47.75238312 -4.17805481 46.95069885 C-4.18312941 45.29208974 -4.18546297 43.63347038 -4.18530273 41.97485352 C-4.18744646 39.49932516 -4.20547381 37.02427492 -4.22460938 34.54882812 C-4.25386654 26.47233182 -4.01881555 18.50324882 -3.11328125 10.47265625 C-3.03554977 9.76209579 -2.9578183 9.05153534 -2.87773132 8.31944275 C-2.439521 4.8503685 -1.97718294 2.96577441 0 0 Z " fill="#405067" transform="translate(152,131)"/>
<path d="M0 0 C5.445 0.495 5.445 0.495 11 1 C12.09192376 6.4596188 11.65680044 7.43030325 9 12 C10.99983534 11.20882096 10.99983534 11.20882096 13 10 C13.33 9.01 13.66 8.02 14 7 C14.66 7 15.32 7 16 7 C14.33248852 10.94139078 11.77289351 13.7892812 9 17 C8.34 16.34 7.68 15.68 7 15 C7.31685792 10.08870223 7.77116709 7.45766583 10 3 C6.7 3 3.4 3 0 3 C-0.33 3.66 -0.66 4.32 -1 5 C-3.03125 5.37890625 -3.03125 5.37890625 -5.5 5.5625 C-8.54981525 5.5792263 -8.54981525 5.5792263 -11 7 C-11.23363881 8.84891946 -11.41303635 10.70488031 -11.5625 12.5625 C-11.64628906 13.57441406 -11.73007812 14.58632812 -11.81640625 15.62890625 C-11.87699219 16.41136719 -11.93757813 17.19382812 -12 18 C-12.33 18 -12.66 18 -13 18 C-13.33 13.71 -13.66 9.42 -14 5 C-8.88190297 2.95276119 -7.18273772 2.98377692 -2 4 C-1.34 2.68 -0.68 1.36 0 0 Z M21 1 C21.66 1.33 22.32 1.66 23 2 C21.35 3.65 19.7 5.3 18 7 C17.34 6.67 16.68 6.34 16 6 C17.375 4.5 17.375 4.5 19 3 C19.66 3 20.32 3 21 3 C21 2.34 21 1.68 21 1 Z " fill="#41526A" transform="translate(75,56)"/>
<path d="M0 0 C1.32 0.33 2.64 0.66 4 1 C4.33 5.95 4.66 10.9 5 16 C4.34 15.67 3.68 15.34 3 15 C3 14.01 3 13.02 3 12 C1.68 12.33 0.36 12.66 -1 13 C-1 11.35 -1 9.7 -1 8 C-1.66 7.67 -2.32 7.34 -3 7 C-2.01 4.69 -1.02 2.38 0 0 Z " fill="#27313F" transform="translate(146,189)"/>
<path d="M0 0 C0.33 0 0.66 0 1 0 C1.4453125 2.5703125 1.4453125 2.5703125 1 6 C-1.06123935 8.64225983 -3.57152111 10.71841015 -6.125 12.875 C-10.9756048 17.05817662 -15.10436803 21.12217713 -18.76904297 26.40283203 C-20 28 -20 28 -22 29 C-21.71125 28.443125 -21.4225 27.88625 -21.125 27.3125 C-19.95184302 25.02806715 -19.95184302 25.02806715 -19.19921875 22.60546875 C-17.79847839 19.56216641 -16.24942965 18.135659 -13.6875 16 C-11.03376294 13.74731002 -8.45886666 11.52551217 -6.0625 9 C-4 7 -4 7 -2 7 C-1.34 4.69 -0.68 2.38 0 0 Z " fill="#3E4E65" transform="translate(64,84)"/>
<path d="M0 0 C0.66 0.33 1.32 0.66 2 1 C1.01 2.485 1.01 2.485 0 4 C-0.99 4 -1.98 4 -3 4 C-3 5.98 -3 7.96 -3 10 C-2.01 10 -1.02 10 0 10 C0 10.66 0 11.32 0 12 C1.98 11.34 3.96 10.68 6 10 C5 13 5 13 2.6875 14.1875 C0 15 0 15 -4 15 C-4 14.01 -4 13.02 -4 12 C-4.66 12 -5.32 12 -6 12 C-5.63076923 4.61538462 -5.63076923 4.61538462 -2.4375 1.5 C-1.633125 1.005 -0.82875 0.51 0 0 Z " fill="#3E4E65" transform="translate(22,121)"/>
<path d="M0 0 C1.5 1.375 1.5 1.375 3 3 C3 3.66 3 4.32 3 5 C3.61875 5.2475 4.2375 5.495 4.875 5.75 C7.38710296 7.22770762 7.76107344 8.43955177 9 11 C9.99 11.33 10.98 11.66 12 12 C13.60812665 13.73226275 15.14197316 15.5345009 16.625 17.375 C17.42164063 18.35210937 18.21828125 19.32921875 19.0390625 20.3359375 C21 23 21 23 22 26 C21.34 26 20.68 26 20 26 C18.76777978 24.30153429 17.54100707 22.59856018 16.35546875 20.8671875 C14.4947646 18.30402732 12.26463352 16.20801768 10 14 C8.32932867 12.00334402 6.66247014 10.00348966 5 8 C4.2575 7.29875 3.515 6.5975 2.75 5.875 C0.88743617 3.8793959 0.38104672 2.66732705 0 0 Z " fill="#41526A" transform="translate(119,75)"/>
<path d="M0 0 C2.69082872 0.17635452 5.32851446 0.61835921 8 1 C7.67 2.98 7.34 4.96 7 7 C5.02 7 3.04 7 1 7 C0.34 5.02 -0.32 3.04 -1 1 C-0.67 0.67 -0.34 0.34 0 0 Z " fill="#2A3545" transform="translate(71,104)"/>
<path d="M0 0 C3 1 3 1 5 4 C5.07905064 6.33199388 5.08798769 8.66832622 5 11 C6.11375 10.360625 7.2275 9.72125 8.375 9.0625 C10.23497087 7.99473894 12.08142937 6.95928532 14 6 C13.63088042 8.67611698 13.15144437 9.8431469 11.25 11.8125 C9 13 9 13 4 12 C2.68 8.04 1.36 4.08 0 0 Z " fill="#41526A" transform="translate(158,123)"/>
<path d="M0 0 C0.99 0.33 1.98 0.66 3 1 C3 3.31 3 5.62 3 8 C-0.3 8 -3.6 8 -7 8 C-7 7.34 -7 6.68 -7 6 C-4.36 6.33 -1.72 6.66 1 7 C1 5.68 1 4.36 1 3 C0.34 2.67 -0.32 2.34 -1 2 C-0.67 1.34 -0.34 0.68 0 0 Z " fill="#405068" transform="translate(67,96)"/>
<path d="M0 0 C1.1157177 3.34715311 1.1807689 4.71071522 0 8 C-2.5 9.1875 -2.5 9.1875 -5 10 C-5.33 10.66 -5.66 11.32 -6 12 C-6.33 10.68 -6.66 9.36 -7 8 C-6.21625 7.79375 -5.4325 7.5875 -4.625 7.375 C-1.69083714 6.19323388 -1.69083714 6.19323388 -0.6875 2.875 C-0.460625 1.92625 -0.23375 0.9775 0 0 Z " fill="#415169" transform="translate(86,78)"/>
<path d="M0 0 C0.66 0.33 1.32 0.66 2 1 C0.68 2.32 -0.64 3.64 -2 5 C-2.66 4.67 -3.32 4.34 -4 4 C-2.68 2.68 -1.36 1.36 0 0 Z M-6 5 C-5.34 5.33 -4.68 5.66 -4 6 C-6.35953094 8.35953094 -7.77895617 8.49141413 -11 9 C-11 8.34 -11 7.68 -11 7 C-8.625 5.9375 -8.625 5.9375 -6 5 Z " fill="#42536B" transform="translate(37,113)"/>
<path d="M0 0 C-3.96 1.98 -3.96 1.98 -8 4 C-8.66 3.34 -9.32 2.68 -10 2 C-3.375 -1.125 -3.375 -1.125 0 0 Z " fill="#2B3545" transform="translate(141,199)"/>
<path d="M0 0 C-0.33 1.32 -0.66 2.64 -1 4 C-2.98 4 -4.96 4 -7 4 C-3.375 0 -3.375 0 0 0 Z " fill="#2B3646" transform="translate(143,102)"/>
<path d="M0 0 C0.33 0.66 0.66 1.32 1 2 C-0.4375 4.625 -0.4375 4.625 -2 7 C-3.32 6.67 -4.64 6.34 -6 6 C-4 4 -2 2 0 0 Z " fill="#3D4C63" transform="translate(143,201)"/>
</svg>
